<?xml version="1.0" standalone="no"?>
<svg xmlns:xlink="http://www.w3.org/1999/xlink" id="wave" style="transform:rotate(180deg); transition: 0.3s" viewBox="0 0 1440 490" version="1.1" xmlns="http://www.w3.org/2000/svg"><defs><linearGradient id="sw-gradient-0" x1="0" x2="0" y1="1" y2="0"><stop stop-color="rgba(243, 106, 62, 1)" offset="0%"/><stop stop-color="rgba(255, 179, 11, 1)" offset="100%"/></linearGradient></defs><path style="transform:translate(0, 0px); opacity:1" fill="url(#sw-gradient-0)" d="M0,245L60,245C120,245,240,245,360,261.3C480,278,600,310,720,285.8C840,261,960,180,1080,171.5C1200,163,1320,229,1440,269.5C1560,310,1680,327,1800,294C1920,261,2040,180,2160,147C2280,114,2400,131,2520,122.5C2640,114,2760,82,2880,130.7C3000,180,3120,310,3240,334.8C3360,359,3480,278,3600,220.5C3720,163,3840,131,3960,163.3C4080,196,4200,294,4320,334.8C4440,376,4560,359,4680,318.5C4800,278,4920,212,5040,204.2C5160,196,5280,245,5400,277.7C5520,310,5640,327,5760,318.5C5880,310,6000,278,6120,269.5C6240,261,6360,278,6480,245C6600,212,6720,131,6840,114.3C6960,98,7080,147,7200,179.7C7320,212,7440,229,7560,204.2C7680,180,7800,114,7920,114.3C8040,114,8160,180,8280,236.8C8400,294,8520,343,8580,367.5L8640,392L8640,490L8580,490C8520,490,8400,490,8280,490C8160,490,8040,490,7920,490C7800,490,7680,490,7560,490C7440,490,7320,490,7200,490C7080,490,6960,490,6840,490C6720,490,6600,490,6480,490C6360,490,6240,490,6120,490C6000,490,5880,490,5760,490C5640,490,5520,490,5400,490C5280,490,5160,490,5040,490C4920,490,4800,490,4680,490C4560,490,4440,490,4320,490C4200,490,4080,490,3960,490C3840,490,3720,490,3600,490C3480,490,3360,490,3240,490C3120,490,3000,490,2880,490C2760,490,2640,490,2520,490C2400,490,2280,490,2160,490C2040,490,1920,490,1800,490C1680,490,1560,490,1440,490C1320,490,1200,490,1080,490C960,490,840,490,720,490C600,490,480,490,360,490C240,490,120,490,60,490L0,490Z"/></svg>